<svg xmlns="http://www.w3.org/2000/svg" xmlns:xlink="http://www.w3.org/1999/xlink" width="1024" zoomAndPan="magnify" viewBox="0 0 768 767.999994" height="1024" preserveAspectRatio="xMidYMid meet" version="1.0"><defs><g/><clipPath id="f11fe498c7"><path d="M 16 96.621094 L 752 96.621094 L 752 644.121094 L 16 644.121094 Z M 16 96.621094 " clip-rule="nonzero"/></clipPath></defs><g clip-path="url(#f11fe498c7)"><path fill="#000000" d="M 692.484375 96.621094 L 514.636719 96.621094 L 500.652344 170.6875 L 437.261719 96.621094 L 272.210938 96.621094 L 255.03125 159.074219 L 254.4375 155.871094 L 195.195312 96.621094 L 16.515625 96.621094 L 125.167969 585.101562 L 184.410156 644.355469 L 355.035156 644.355469 L 392.832031 508.3125 L 414.160156 585.101562 L 473.402344 644.355469 L 644.023438 644.355469 L 751.730469 155.871094 Z M 692.484375 96.621094 " fill-opacity="1" fill-rule="nonzero"/></g><path fill="#ffffff" d="M 46.019531 120.320312 L 175.40625 120.320312 L 221.972656 367.167969 L 290.21875 120.320312 L 419.136719 120.320312 L 487.503906 366.933594 L 534.304688 120.320312 L 663.101562 120.320312 L 565.941406 561.402344 L 432.167969 561.402344 L 354.796875 283.742188 L 277.78125 561.402344 L 144.125 561.402344 Z M 46.019531 120.320312 " fill-opacity="1" fill-rule="nonzero"/><g fill="#000000" fill-opacity="1"><g transform="translate(376.192971, 446.03791)"><g><path d="M 6.21875 0.28125 C 4.738281 0.28125 3.578125 -0.101562 2.734375 -0.875 C 1.898438 -1.644531 1.484375 -2.753906 1.484375 -4.203125 C 1.484375 -5.085938 1.664062 -5.835938 2.03125 -6.453125 C 2.40625 -7.078125 2.976562 -7.582031 3.75 -7.96875 C 4.53125 -8.351562 5.546875 -8.648438 6.796875 -8.859375 C 7.890625 -9.046875 8.71875 -9.25 9.28125 -9.46875 C 9.851562 -9.695312 10.238281 -9.953125 10.4375 -10.234375 C 10.632812 -10.523438 10.734375 -10.882812 10.734375 -11.3125 C 10.734375 -11.988281 10.5 -12.507812 10.03125 -12.875 C 9.5625 -13.238281 8.804688 -13.421875 7.765625 -13.421875 C 6.785156 -13.421875 5.945312 -13.234375 5.25 -12.859375 C 4.5625 -12.484375 3.925781 -11.921875 3.34375 -11.171875 L 3.0625 -11.171875 L 1.96875 -12.71875 C 2.601562 -13.53125 3.410156 -14.175781 4.390625 -14.65625 C 5.378906 -15.132812 6.503906 -15.375 7.765625 -15.375 C 9.546875 -15.375 10.859375 -14.984375 11.703125 -14.203125 C 12.546875 -13.421875 12.96875 -12.34375 12.96875 -10.96875 L 12.96875 -2.96875 C 12.96875 -2.125 13.320312 -1.703125 14.03125 -1.703125 C 14.269531 -1.703125 14.5 -1.742188 14.71875 -1.828125 L 14.90625 -1.78125 L 15.15625 -0.234375 C 15 -0.117188 14.785156 -0.0351562 14.515625 0.015625 C 14.242188 0.078125 13.96875 0.109375 13.6875 0.109375 C 12.851562 0.109375 12.222656 -0.0703125 11.796875 -0.4375 C 11.378906 -0.800781 11.113281 -1.335938 11 -2.046875 L 10.703125 -2.078125 C 10.273438 -1.285156 9.695312 -0.691406 8.96875 -0.296875 C 8.238281 0.0859375 7.320312 0.28125 6.21875 0.28125 Z M 6.71875 -1.484375 C 7.550781 -1.484375 8.273438 -1.675781 8.890625 -2.0625 C 9.503906 -2.457031 9.972656 -3.003906 10.296875 -3.703125 C 10.628906 -4.410156 10.796875 -5.222656 10.796875 -6.140625 L 10.796875 -8.046875 L 10.546875 -8.109375 C 10.203125 -7.867188 9.789062 -7.671875 9.3125 -7.515625 C 8.832031 -7.359375 8.15625 -7.210938 7.28125 -7.078125 C 6.40625 -6.960938 5.710938 -6.78125 5.203125 -6.53125 C 4.691406 -6.289062 4.328125 -5.976562 4.109375 -5.59375 C 3.890625 -5.21875 3.78125 -4.753906 3.78125 -4.203125 C 3.78125 -3.316406 4.035156 -2.640625 4.546875 -2.171875 C 5.066406 -1.710938 5.789062 -1.484375 6.71875 -1.484375 Z M 6.71875 -1.484375 "/></g></g></g></svg>