<svg xmlns="http://www.w3.org/2000/svg" xmlns:xlink="http://www.w3.org/1999/xlink" width="1024" zoomAndPan="magnify" viewBox="0 0 768 767.999994" height="1024" preserveAspectRatio="xMidYMid meet" version="1.0"><defs><g/><clipPath id="535c104caa"><path d="M 126.347656 211.800781 L 433.847656 211.800781 L 433.847656 439.800781 L 126.347656 439.800781 Z M 126.347656 211.800781 " clip-rule="nonzero"/></clipPath></defs><g clip-path="url(#535c104caa)"><path fill="#000000" d="M 408.835938 211.800781 L 334.65625 211.800781 L 328.828125 242.644531 L 302.386719 211.800781 L 233.542969 211.800781 L 226.378906 237.808594 L 226.132812 236.476562 L 201.421875 211.800781 L 126.898438 211.800781 L 172.214844 415.222656 L 196.925781 439.898438 L 268.089844 439.898438 L 283.855469 383.246094 L 292.75 415.222656 L 317.460938 439.898438 L 388.625 439.898438 L 433.546875 236.476562 Z M 408.835938 211.800781 " fill-opacity="1" fill-rule="nonzero"/></g><path fill="#ffffff" d="M 139.203125 221.671875 L 193.167969 221.671875 L 212.589844 324.46875 L 241.058594 221.671875 L 294.824219 221.671875 L 323.339844 324.367188 L 342.863281 221.671875 L 396.582031 221.671875 L 356.058594 405.351562 L 300.261719 405.351562 L 267.992188 289.726562 L 235.867188 405.351562 L 180.121094 405.351562 Z M 139.203125 221.671875 " fill-opacity="1" fill-rule="nonzero"/><g fill="#000000" fill-opacity="1"><g transform="translate(262.231679, 366.760519)"><g><path d="M 6.21875 0.28125 C 4.738281 0.28125 3.578125 -0.101562 2.734375 -0.875 C 1.898438 -1.644531 1.484375 -2.753906 1.484375 -4.203125 C 1.484375 -5.085938 1.664062 -5.835938 2.03125 -6.453125 C 2.40625 -7.078125 2.976562 -7.582031 3.75 -7.96875 C 4.53125 -8.351562 5.546875 -8.648438 6.796875 -8.859375 C 7.890625 -9.046875 8.71875 -9.25 9.28125 -9.46875 C 9.851562 -9.695312 10.238281 -9.953125 10.4375 -10.234375 C 10.632812 -10.523438 10.734375 -10.882812 10.734375 -11.3125 C 10.734375 -11.988281 10.5 -12.507812 10.03125 -12.875 C 9.5625 -13.238281 8.804688 -13.421875 7.765625 -13.421875 C 6.785156 -13.421875 5.945312 -13.234375 5.25 -12.859375 C 4.5625 -12.484375 3.925781 -11.921875 3.34375 -11.171875 L 3.0625 -11.171875 L 1.96875 -12.71875 C 2.601562 -13.53125 3.410156 -14.175781 4.390625 -14.65625 C 5.378906 -15.132812 6.503906 -15.375 7.765625 -15.375 C 9.546875 -15.375 10.859375 -14.984375 11.703125 -14.203125 C 12.546875 -13.421875 12.96875 -12.34375 12.96875 -10.96875 L 12.96875 -2.96875 C 12.96875 -2.125 13.320312 -1.703125 14.03125 -1.703125 C 14.269531 -1.703125 14.5 -1.742188 14.71875 -1.828125 L 14.90625 -1.78125 L 15.15625 -0.234375 C 15 -0.117188 14.785156 -0.0351562 14.515625 0.015625 C 14.242188 0.078125 13.96875 0.109375 13.6875 0.109375 C 12.851562 0.109375 12.222656 -0.0703125 11.796875 -0.4375 C 11.378906 -0.800781 11.113281 -1.335938 11 -2.046875 L 10.703125 -2.078125 C 10.273438 -1.285156 9.695312 -0.691406 8.96875 -0.296875 C 8.238281 0.0859375 7.320312 0.28125 6.21875 0.28125 Z M 6.71875 -1.484375 C 7.550781 -1.484375 8.273438 -1.675781 8.890625 -2.0625 C 9.503906 -2.457031 9.972656 -3.003906 10.296875 -3.703125 C 10.628906 -4.410156 10.796875 -5.222656 10.796875 -6.140625 L 10.796875 -8.046875 L 10.546875 -8.109375 C 10.203125 -7.867188 9.789062 -7.671875 9.3125 -7.515625 C 8.832031 -7.359375 8.15625 -7.210938 7.28125 -7.078125 C 6.40625 -6.960938 5.710938 -6.78125 5.203125 -6.53125 C 4.691406 -6.289062 4.328125 -5.976562 4.109375 -5.59375 C 3.890625 -5.21875 3.78125 -4.753906 3.78125 -4.203125 C 3.78125 -3.316406 4.035156 -2.640625 4.546875 -2.171875 C 5.066406 -1.710938 5.789062 -1.484375 6.71875 -1.484375 Z M 6.71875 -1.484375 "/></g></g></g></svg>